<mxfile host="app.diagrams.net" modified="2024-03-11T22:36:48.817Z" agent="Mozilla/5.0 (Macintosh; Intel Mac OS X 10_15_7) AppleWebKit/537.36 (KHTML, like Gecko) Chrome/122.0.0.0 Safari/537.36" etag="pI0CY87kt_4gutKMqxEA" version="24.0.5" type="github">
  <diagram id="C5RBs43oDa-KdzZeNtuy" name="Page-1">
    <mxGraphModel dx="1593" dy="901" grid="1" gridSize="10" guides="1" tooltips="1" connect="1" arrows="1" fold="1" page="1" pageScale="1" pageWidth="827" pageHeight="1169" math="0" shadow="0">
      <root>
        <mxCell id="WIyWlLk6GJQsqaUBKTNV-0" />
        <mxCell id="WIyWlLk6GJQsqaUBKTNV-1" parent="WIyWlLk6GJQsqaUBKTNV-0" />
        <mxCell id="PX3LSnjb0EUhGyxI3kMB-23" style="edgeStyle=none;curved=1;rounded=0;orthogonalLoop=1;jettySize=auto;html=1;exitX=0.5;exitY=1;exitDx=0;exitDy=0;entryX=0.5;entryY=0;entryDx=0;entryDy=0;fontSize=12;startSize=8;endSize=8;" edge="1" parent="WIyWlLk6GJQsqaUBKTNV-1" source="WIyWlLk6GJQsqaUBKTNV-3" target="PX3LSnjb0EUhGyxI3kMB-19">
          <mxGeometry relative="1" as="geometry" />
        </mxCell>
        <mxCell id="WIyWlLk6GJQsqaUBKTNV-3" value="Abertura do cofre pelo Beneficiario" style="rounded=1;whiteSpace=wrap;html=1;fontSize=12;glass=0;strokeWidth=1;shadow=0;" parent="WIyWlLk6GJQsqaUBKTNV-1" vertex="1">
          <mxGeometry x="770" y="20" width="120" height="40" as="geometry" />
        </mxCell>
        <mxCell id="PX3LSnjb0EUhGyxI3kMB-8" style="edgeStyle=none;curved=1;rounded=0;orthogonalLoop=1;jettySize=auto;html=1;exitX=0.5;exitY=1;exitDx=0;exitDy=0;entryX=0.5;entryY=0;entryDx=0;entryDy=0;fontSize=12;startSize=8;endSize=8;" edge="1" parent="WIyWlLk6GJQsqaUBKTNV-1" source="PX3LSnjb0EUhGyxI3kMB-0" target="PX3LSnjb0EUhGyxI3kMB-4">
          <mxGeometry relative="1" as="geometry" />
        </mxCell>
        <mxCell id="PX3LSnjb0EUhGyxI3kMB-0" value="Efetua o cancelamento do plano (EFI)" style="rounded=1;whiteSpace=wrap;html=1;fontSize=12;glass=0;strokeWidth=1;shadow=0;" vertex="1" parent="WIyWlLk6GJQsqaUBKTNV-1">
          <mxGeometry x="770" y="170" width="120" height="40" as="geometry" />
        </mxCell>
        <mxCell id="PX3LSnjb0EUhGyxI3kMB-59" style="edgeStyle=none;curved=1;rounded=0;orthogonalLoop=1;jettySize=auto;html=1;exitX=0.5;exitY=1;exitDx=0;exitDy=0;entryX=0.5;entryY=0;entryDx=0;entryDy=0;fontSize=12;startSize=8;endSize=8;" edge="1" parent="WIyWlLk6GJQsqaUBKTNV-1" source="PX3LSnjb0EUhGyxI3kMB-4" target="PX3LSnjb0EUhGyxI3kMB-52">
          <mxGeometry relative="1" as="geometry" />
        </mxCell>
        <mxCell id="PX3LSnjb0EUhGyxI3kMB-4" value="Efetua o cancelamento da conta na plataforma" style="rounded=1;whiteSpace=wrap;html=1;fontSize=12;glass=0;strokeWidth=1;shadow=0;" vertex="1" parent="WIyWlLk6GJQsqaUBKTNV-1">
          <mxGeometry x="770" y="250" width="120" height="40" as="geometry" />
        </mxCell>
        <mxCell id="PX3LSnjb0EUhGyxI3kMB-68" style="edgeStyle=orthogonalEdgeStyle;rounded=0;orthogonalLoop=1;jettySize=auto;html=1;exitX=1;exitY=0.5;exitDx=0;exitDy=0;entryX=0.5;entryY=0;entryDx=0;entryDy=0;fontSize=12;startSize=8;endSize=8;entryPerimeter=0;" edge="1" parent="WIyWlLk6GJQsqaUBKTNV-1" source="PX3LSnjb0EUhGyxI3kMB-15" target="PX3LSnjb0EUhGyxI3kMB-94">
          <mxGeometry relative="1" as="geometry" />
        </mxCell>
        <mxCell id="PX3LSnjb0EUhGyxI3kMB-69" value="Sim" style="edgeLabel;html=1;align=center;verticalAlign=middle;resizable=0;points=[];fontSize=12;" vertex="1" connectable="0" parent="PX3LSnjb0EUhGyxI3kMB-68">
          <mxGeometry x="-0.4343" y="1" relative="1" as="geometry">
            <mxPoint as="offset" />
          </mxGeometry>
        </mxCell>
        <mxCell id="PX3LSnjb0EUhGyxI3kMB-70" style="edgeStyle=none;curved=1;rounded=0;orthogonalLoop=1;jettySize=auto;html=1;exitX=0;exitY=0.5;exitDx=0;exitDy=0;entryX=1;entryY=0.5;entryDx=0;entryDy=0;fontSize=12;startSize=8;endSize=8;" edge="1" parent="WIyWlLk6GJQsqaUBKTNV-1" source="PX3LSnjb0EUhGyxI3kMB-15" target="PX3LSnjb0EUhGyxI3kMB-65">
          <mxGeometry relative="1" as="geometry" />
        </mxCell>
        <mxCell id="PX3LSnjb0EUhGyxI3kMB-71" value="Não" style="edgeLabel;html=1;align=center;verticalAlign=middle;resizable=0;points=[];fontSize=12;" vertex="1" connectable="0" parent="PX3LSnjb0EUhGyxI3kMB-70">
          <mxGeometry x="-0.1831" y="1" relative="1" as="geometry">
            <mxPoint as="offset" />
          </mxGeometry>
        </mxCell>
        <mxCell id="PX3LSnjb0EUhGyxI3kMB-15" value="Mais de 120 dias após abertura do cofre?" style="rhombus;whiteSpace=wrap;html=1;shadow=0;fontFamily=Helvetica;fontSize=12;align=center;strokeWidth=1;spacing=6;spacingTop=-4;" vertex="1" parent="WIyWlLk6GJQsqaUBKTNV-1">
          <mxGeometry x="757.5" y="480" width="145" height="130" as="geometry" />
        </mxCell>
        <mxCell id="PX3LSnjb0EUhGyxI3kMB-50" style="edgeStyle=none;curved=1;rounded=0;orthogonalLoop=1;jettySize=auto;html=1;exitX=0.5;exitY=1;exitDx=0;exitDy=0;entryX=0.5;entryY=0;entryDx=0;entryDy=0;fontSize=12;startSize=8;endSize=8;" edge="1" parent="WIyWlLk6GJQsqaUBKTNV-1" source="PX3LSnjb0EUhGyxI3kMB-19" target="PX3LSnjb0EUhGyxI3kMB-0">
          <mxGeometry relative="1" as="geometry" />
        </mxCell>
        <mxCell id="PX3LSnjb0EUhGyxI3kMB-19" value="Busca a conta do usuario vinculada" style="rounded=1;whiteSpace=wrap;html=1;fontSize=12;glass=0;strokeWidth=1;shadow=0;" vertex="1" parent="WIyWlLk6GJQsqaUBKTNV-1">
          <mxGeometry x="770" y="90" width="120" height="40" as="geometry" />
        </mxCell>
        <mxCell id="PX3LSnjb0EUhGyxI3kMB-67" value="" style="edgeStyle=none;curved=1;rounded=0;orthogonalLoop=1;jettySize=auto;html=1;fontSize=12;startSize=8;endSize=8;" edge="1" parent="WIyWlLk6GJQsqaUBKTNV-1" source="PX3LSnjb0EUhGyxI3kMB-34" target="PX3LSnjb0EUhGyxI3kMB-38">
          <mxGeometry relative="1" as="geometry" />
        </mxCell>
        <mxCell id="PX3LSnjb0EUhGyxI3kMB-34" value="Avisa os beneficiarios da exclusão e o motivo" style="rounded=1;whiteSpace=wrap;html=1;fontSize=12;glass=0;strokeWidth=1;shadow=0;" vertex="1" parent="WIyWlLk6GJQsqaUBKTNV-1">
          <mxGeometry x="1089" y="657.48" width="120" height="65" as="geometry" />
        </mxCell>
        <mxCell id="PX3LSnjb0EUhGyxI3kMB-38" value="Fim de fluxo" style="rounded=1;whiteSpace=wrap;html=1;fontSize=12;glass=0;strokeWidth=1;shadow=0;" vertex="1" parent="WIyWlLk6GJQsqaUBKTNV-1">
          <mxGeometry x="1238" y="669.98" width="120" height="40" as="geometry" />
        </mxCell>
        <mxCell id="PX3LSnjb0EUhGyxI3kMB-45" value="" style="edgeStyle=none;curved=1;rounded=0;orthogonalLoop=1;jettySize=auto;html=1;fontSize=12;startSize=8;endSize=8;" edge="1" parent="WIyWlLk6GJQsqaUBKTNV-1" source="PX3LSnjb0EUhGyxI3kMB-43" target="PX3LSnjb0EUhGyxI3kMB-15">
          <mxGeometry relative="1" as="geometry" />
        </mxCell>
        <mxCell id="PX3LSnjb0EUhGyxI3kMB-43" value="Cancela solicitação de exclusão e informa os beneficiarios" style="rounded=1;whiteSpace=wrap;html=1;fontSize=12;glass=0;strokeWidth=1;shadow=0;" vertex="1" parent="WIyWlLk6GJQsqaUBKTNV-1">
          <mxGeometry x="770" y="680" width="120" height="40" as="geometry" />
        </mxCell>
        <mxCell id="PX3LSnjb0EUhGyxI3kMB-54" style="edgeStyle=none;curved=1;rounded=0;orthogonalLoop=1;jettySize=auto;html=1;exitX=0.5;exitY=1;exitDx=0;exitDy=0;entryX=0.5;entryY=0;entryDx=0;entryDy=0;fontSize=12;startSize=8;endSize=8;" edge="1" parent="WIyWlLk6GJQsqaUBKTNV-1" source="PX3LSnjb0EUhGyxI3kMB-52" target="PX3LSnjb0EUhGyxI3kMB-15">
          <mxGeometry relative="1" as="geometry" />
        </mxCell>
        <mxCell id="PX3LSnjb0EUhGyxI3kMB-56" value="Sim" style="edgeLabel;html=1;align=center;verticalAlign=middle;resizable=0;points=[];fontSize=12;" vertex="1" connectable="0" parent="PX3LSnjb0EUhGyxI3kMB-54">
          <mxGeometry x="-0.04" relative="1" as="geometry">
            <mxPoint as="offset" />
          </mxGeometry>
        </mxCell>
        <mxCell id="PX3LSnjb0EUhGyxI3kMB-63" style="edgeStyle=orthogonalEdgeStyle;rounded=0;orthogonalLoop=1;jettySize=auto;html=1;exitX=1;exitY=0.5;exitDx=0;exitDy=0;entryX=0.5;entryY=0;entryDx=0;entryDy=0;fontSize=12;startSize=8;endSize=8;" edge="1" parent="WIyWlLk6GJQsqaUBKTNV-1" source="PX3LSnjb0EUhGyxI3kMB-52" target="PX3LSnjb0EUhGyxI3kMB-38">
          <mxGeometry relative="1" as="geometry">
            <mxPoint x="954" y="380" as="targetPoint" />
          </mxGeometry>
        </mxCell>
        <mxCell id="PX3LSnjb0EUhGyxI3kMB-64" value="Não" style="edgeLabel;html=1;align=center;verticalAlign=middle;resizable=0;points=[];fontSize=12;" vertex="1" connectable="0" parent="PX3LSnjb0EUhGyxI3kMB-63">
          <mxGeometry x="-0.2754" relative="1" as="geometry">
            <mxPoint as="offset" />
          </mxGeometry>
        </mxCell>
        <mxCell id="PX3LSnjb0EUhGyxI3kMB-52" value="Usuário ainda possui dados na platforma?" style="rhombus;whiteSpace=wrap;html=1;shadow=0;fontFamily=Helvetica;fontSize=12;align=center;strokeWidth=1;spacing=6;spacingTop=-4;" vertex="1" parent="WIyWlLk6GJQsqaUBKTNV-1">
          <mxGeometry x="775" y="330" width="110" height="100" as="geometry" />
        </mxCell>
        <mxCell id="PX3LSnjb0EUhGyxI3kMB-82" style="edgeStyle=none;curved=1;rounded=0;orthogonalLoop=1;jettySize=auto;html=1;exitX=0;exitY=0.5;exitDx=0;exitDy=0;entryX=1;entryY=0.5;entryDx=0;entryDy=0;fontSize=12;startSize=8;endSize=8;" edge="1" parent="WIyWlLk6GJQsqaUBKTNV-1" source="PX3LSnjb0EUhGyxI3kMB-65" target="PX3LSnjb0EUhGyxI3kMB-72">
          <mxGeometry relative="1" as="geometry" />
        </mxCell>
        <mxCell id="PX3LSnjb0EUhGyxI3kMB-83" value="Sim" style="edgeLabel;html=1;align=center;verticalAlign=middle;resizable=0;points=[];fontSize=12;" vertex="1" connectable="0" parent="PX3LSnjb0EUhGyxI3kMB-82">
          <mxGeometry x="-0.0485" y="1" relative="1" as="geometry">
            <mxPoint as="offset" />
          </mxGeometry>
        </mxCell>
        <mxCell id="PX3LSnjb0EUhGyxI3kMB-92" style="edgeStyle=orthogonalEdgeStyle;rounded=0;orthogonalLoop=1;jettySize=auto;html=1;exitX=0.5;exitY=0;exitDx=0;exitDy=0;entryX=0;entryY=0.5;entryDx=0;entryDy=0;fontSize=12;startSize=8;endSize=8;" edge="1" parent="WIyWlLk6GJQsqaUBKTNV-1" source="PX3LSnjb0EUhGyxI3kMB-65" target="PX3LSnjb0EUhGyxI3kMB-52">
          <mxGeometry relative="1" as="geometry" />
        </mxCell>
        <mxCell id="PX3LSnjb0EUhGyxI3kMB-93" value="Não" style="edgeLabel;html=1;align=center;verticalAlign=middle;resizable=0;points=[];fontSize=12;" vertex="1" connectable="0" parent="PX3LSnjb0EUhGyxI3kMB-92">
          <mxGeometry x="0.2737" y="1" relative="1" as="geometry">
            <mxPoint as="offset" />
          </mxGeometry>
        </mxCell>
        <mxCell id="PX3LSnjb0EUhGyxI3kMB-65" value="Beneficiario solicitou a exclusão dos dados?" style="rhombus;whiteSpace=wrap;html=1;shadow=0;fontFamily=Helvetica;fontSize=12;align=center;strokeWidth=1;spacing=6;spacingTop=-4;" vertex="1" parent="WIyWlLk6GJQsqaUBKTNV-1">
          <mxGeometry x="550" y="480" width="140" height="130" as="geometry" />
        </mxCell>
        <mxCell id="PX3LSnjb0EUhGyxI3kMB-75" style="edgeStyle=orthogonalEdgeStyle;rounded=0;orthogonalLoop=1;jettySize=auto;html=1;exitX=0.5;exitY=1;exitDx=0;exitDy=0;entryX=0.21;entryY=0.967;entryDx=0;entryDy=0;fontSize=12;startSize=8;endSize=8;entryPerimeter=0;" edge="1" parent="WIyWlLk6GJQsqaUBKTNV-1" source="PX3LSnjb0EUhGyxI3kMB-72" target="PX3LSnjb0EUhGyxI3kMB-94">
          <mxGeometry relative="1" as="geometry">
            <Array as="points">
              <mxPoint x="420" y="980" />
              <mxPoint x="981" y="980" />
            </Array>
          </mxGeometry>
        </mxCell>
        <mxCell id="PX3LSnjb0EUhGyxI3kMB-76" value="Não" style="edgeLabel;html=1;align=center;verticalAlign=middle;resizable=0;points=[];fontSize=12;" vertex="1" connectable="0" parent="PX3LSnjb0EUhGyxI3kMB-75">
          <mxGeometry x="-0.0421" relative="1" as="geometry">
            <mxPoint as="offset" />
          </mxGeometry>
        </mxCell>
        <mxCell id="PX3LSnjb0EUhGyxI3kMB-84" style="edgeStyle=orthogonalEdgeStyle;rounded=0;orthogonalLoop=1;jettySize=auto;html=1;exitX=0;exitY=0.5;exitDx=0;exitDy=0;entryX=0.5;entryY=0;entryDx=0;entryDy=0;fontSize=12;startSize=8;endSize=8;" edge="1" parent="WIyWlLk6GJQsqaUBKTNV-1" source="PX3LSnjb0EUhGyxI3kMB-72" target="PX3LSnjb0EUhGyxI3kMB-79">
          <mxGeometry relative="1" as="geometry" />
        </mxCell>
        <mxCell id="PX3LSnjb0EUhGyxI3kMB-97" value="Sim" style="edgeLabel;html=1;align=center;verticalAlign=middle;resizable=0;points=[];fontSize=12;" vertex="1" connectable="0" parent="PX3LSnjb0EUhGyxI3kMB-84">
          <mxGeometry x="-0.4721" y="1" relative="1" as="geometry">
            <mxPoint x="1" as="offset" />
          </mxGeometry>
        </mxCell>
        <mxCell id="PX3LSnjb0EUhGyxI3kMB-72" value="Existem mais beneficiarios vinculados?" style="rhombus;whiteSpace=wrap;html=1;shadow=0;fontFamily=Helvetica;fontSize=12;align=center;strokeWidth=1;spacing=6;spacingTop=-4;" vertex="1" parent="WIyWlLk6GJQsqaUBKTNV-1">
          <mxGeometry x="350" y="480" width="140" height="130" as="geometry" />
        </mxCell>
        <mxCell id="PX3LSnjb0EUhGyxI3kMB-86" style="edgeStyle=none;curved=1;rounded=0;orthogonalLoop=1;jettySize=auto;html=1;exitX=0.5;exitY=1;exitDx=0;exitDy=0;entryX=0.5;entryY=0;entryDx=0;entryDy=0;fontSize=12;startSize=8;endSize=8;" edge="1" parent="WIyWlLk6GJQsqaUBKTNV-1" source="PX3LSnjb0EUhGyxI3kMB-79" target="PX3LSnjb0EUhGyxI3kMB-85">
          <mxGeometry relative="1" as="geometry" />
        </mxCell>
        <mxCell id="PX3LSnjb0EUhGyxI3kMB-79" value="Envia a solicitação de exclusão para todos" style="rounded=1;whiteSpace=wrap;html=1;fontSize=12;glass=0;strokeWidth=1;shadow=0;" vertex="1" parent="WIyWlLk6GJQsqaUBKTNV-1">
          <mxGeometry x="180" y="680" width="120" height="40" as="geometry" />
        </mxCell>
        <mxCell id="PX3LSnjb0EUhGyxI3kMB-90" style="edgeStyle=orthogonalEdgeStyle;rounded=0;orthogonalLoop=1;jettySize=auto;html=1;exitX=1;exitY=0.5;exitDx=0;exitDy=0;entryX=0.5;entryY=1;entryDx=0;entryDy=0;fontSize=12;startSize=8;endSize=8;" edge="1" parent="WIyWlLk6GJQsqaUBKTNV-1" source="PX3LSnjb0EUhGyxI3kMB-85" target="PX3LSnjb0EUhGyxI3kMB-43">
          <mxGeometry relative="1" as="geometry" />
        </mxCell>
        <mxCell id="PX3LSnjb0EUhGyxI3kMB-91" value="Não" style="edgeLabel;html=1;align=center;verticalAlign=middle;resizable=0;points=[];fontSize=12;" vertex="1" connectable="0" parent="PX3LSnjb0EUhGyxI3kMB-90">
          <mxGeometry x="-0.3052" y="1" relative="1" as="geometry">
            <mxPoint x="-1" as="offset" />
          </mxGeometry>
        </mxCell>
        <mxCell id="PX3LSnjb0EUhGyxI3kMB-85" value="Houve o aceite de todos os envolvidos?" style="rhombus;whiteSpace=wrap;html=1;shadow=0;fontFamily=Helvetica;fontSize=12;align=center;strokeWidth=1;spacing=6;spacingTop=-4;" vertex="1" parent="WIyWlLk6GJQsqaUBKTNV-1">
          <mxGeometry x="170" y="760" width="140" height="130" as="geometry" />
        </mxCell>
        <mxCell id="PX3LSnjb0EUhGyxI3kMB-96" style="edgeStyle=none;curved=1;rounded=0;orthogonalLoop=1;jettySize=auto;html=1;exitX=1;exitY=0.5;exitDx=0;exitDy=0;exitPerimeter=0;entryX=0;entryY=0.5;entryDx=0;entryDy=0;fontSize=12;startSize=8;endSize=8;" edge="1" parent="WIyWlLk6GJQsqaUBKTNV-1" source="PX3LSnjb0EUhGyxI3kMB-94" target="PX3LSnjb0EUhGyxI3kMB-34">
          <mxGeometry relative="1" as="geometry" />
        </mxCell>
        <mxCell id="PX3LSnjb0EUhGyxI3kMB-94" value="Exclui os dados permanentemente" style="shape=cylinder3;whiteSpace=wrap;html=1;boundedLbl=1;backgroundOutline=1;size=15;" vertex="1" parent="WIyWlLk6GJQsqaUBKTNV-1">
          <mxGeometry x="960" y="634.98" width="102" height="110" as="geometry" />
        </mxCell>
        <mxCell id="PX3LSnjb0EUhGyxI3kMB-98" style="edgeStyle=orthogonalEdgeStyle;rounded=0;orthogonalLoop=1;jettySize=auto;html=1;exitX=0.5;exitY=1;exitDx=0;exitDy=0;entryX=0.5;entryY=1;entryDx=0;entryDy=0;entryPerimeter=0;fontSize=12;startSize=8;endSize=8;" edge="1" parent="WIyWlLk6GJQsqaUBKTNV-1" source="PX3LSnjb0EUhGyxI3kMB-85" target="PX3LSnjb0EUhGyxI3kMB-94">
          <mxGeometry relative="1" as="geometry">
            <Array as="points">
              <mxPoint x="240" y="1010" />
              <mxPoint x="1011" y="1010" />
            </Array>
          </mxGeometry>
        </mxCell>
        <mxCell id="PX3LSnjb0EUhGyxI3kMB-99" value="Sim" style="edgeLabel;html=1;align=center;verticalAlign=middle;resizable=0;points=[];fontSize=12;" vertex="1" connectable="0" parent="PX3LSnjb0EUhGyxI3kMB-98">
          <mxGeometry x="-0.1481" relative="1" as="geometry">
            <mxPoint as="offset" />
          </mxGeometry>
        </mxCell>
      </root>
    </mxGraphModel>
  </diagram>
</mxfile>
